<?xml version="1.0" encoding="utf-8"?>
<!-- Generator: Adobe Illustrator 16.0.0, SVG Export Plug-In . SVG Version: 6.00 Build 0)  -->
<!DOCTYPE svg PUBLIC "-//W3C//DTD SVG 1.1//EN" "http://www.w3.org/Graphics/SVG/1.1/DTD/svg11.dtd">
<svg version="1.1" id="Layer_1" xmlns="http://www.w3.org/2000/svg" xmlns:xlink="http://www.w3.org/1999/xlink" x="0px" y="0px"
	 width="109.75px" height="33.5px" viewBox="0 0 109.75 33.5" enable-background="new 0 0 109.75 33.5" xml:space="preserve">
<g>
	<path fill="#A0795A" stroke="#A0795A" stroke-width="0.7087" stroke-miterlimit="10" d="M13.104,7.898
		c1.334-0.511,2.052-1.185,2.153-2.022s-0.195-1.572-0.885-2.203c-0.691-0.63-1.811-1.046-3.36-1.247
		C9.462,2.225,7.776,2.442,5.952,3.08C4.128,3.717,3.035,4.706,2.673,6.047c-0.362,1.341-0.05,2.531,0.936,3.571
		c0.985,1.039,2.169,1.773,3.55,2.203c1.381,0.429,3.024,0.62,4.929,0.573c1.904-0.048,4.697-0.453,8.379-1.218
		c3.682-0.764,6.639-1.354,8.872-1.77c2.233-0.416,4.533-0.634,6.9-0.654s4.604,0.238,6.709,0.774
		c2.105,0.536,4.191,1.637,6.256,3.3c2.065,1.662,3.41,3.416,4.034,5.261c0.624,1.844,0.818,3.694,0.583,5.553
		c-0.235,1.857-1.106,3.503-2.615,4.938c-1.509,1.436-3.558,2.411-6.146,2.928c-2.589,0.516-5.586,0.402-8.993-0.342
		c-3.407-0.744-6.129-2.357-8.168-4.838c-2.065,0.281-3.93,0.264-5.592-0.051c-1.663-0.315-3.152-1.13-4.466-2.444
		s-2.2-3.267-2.655-5.854c0.764,2.4,1.757,4.191,2.977,5.371c1.22,1.181,2.636,1.925,4.245,2.234
		c1.609,0.308,3.312,0.381,5.11,0.221c-0.537-0.765-0.899-1.73-1.086-2.896c0-1.207,0.278-2.334,0.835-3.381
		c0.556-1.045,1.458-1.931,2.706-2.655c1.248-0.725,2.582-1.197,4.003-1.418c1.421-0.221,3.075-0.215,4.959,0.021
		c1.884,0.234,3.618,0.865,5.2,1.891c1.583,1.025,2.481,2.22,2.696,3.581c0.214,1.36-0.027,2.384-0.724,3.067
		c-0.697,0.685-1.552,1.174-2.565,1.469s-2.089,0.42-3.229,0.373c-1.14-0.048-2.209-0.363-3.208-0.946
		c-1-0.583-1.908-1.499-2.726-2.746c-0.416,1.113-1.11,1.941-2.082,2.485c-0.973,0.543-2.283,1.056-3.933,1.539
		c2.012,2.279,4.674,3.721,7.987,4.324c3.312,0.604,6.186,0.66,8.62,0.172c2.435-0.49,4.339-1.355,5.713-2.596
		c1.375-1.24,2.223-2.729,2.545-4.467c0.322-1.736,0.174-3.482-0.442-5.24c-0.617-1.757-1.915-3.456-3.893-5.1
		c-1.978-1.643-4.02-2.683-6.125-3.118c-2.106-0.436-4.429-0.613-6.971-0.533c-2.542,0.081-5.586,0.56-9.133,1.438
		c-3.548,0.878-6.264,1.438-8.148,1.68s-4.01,0.349-6.377,0.322c-2.368-0.027-4.222-0.312-5.562-0.855
		C5.234,11.67,4.054,10.882,3.035,9.85C2.016,8.816,1.69,7.519,2.059,5.957c0.369-1.562,1.505-2.696,3.41-3.4
		c1.904-0.704,3.752-0.925,5.542-0.664c1.791,0.262,3.172,0.771,4.145,1.529c0.972,0.758,1.341,1.659,1.106,2.706
		c-0.235,1.046-1.164,1.834-2.786,2.363c-1.623,0.53-3.615,0.117-5.975-1.237C9.901,8.192,11.769,8.407,13.104,7.898z
		 M32.326,24.062c0.684-0.449,1.354-1.412,2.012-2.887c1.113,1.623,2.115,2.688,3.007,3.199c0.892,0.509,1.881,0.805,2.967,0.885
		c1.086,0.08,2.052-0.023,2.897-0.312c0.845-0.288,1.512-0.737,2.002-1.348c0.489-0.61,0.677-1.385,0.563-2.323
		s-0.828-1.948-2.143-3.028c-1.314-1.079-2.896-1.733-4.748-1.961c-1.851-0.229-3.504-0.221-4.959,0.02
		c-1.456,0.241-2.572,0.523-3.35,0.845c-0.778,0.322-1.576,0.932-2.394,1.831s-1.227,2.186-1.227,3.863
		c0.228,1.059,0.583,2.024,1.066,2.896C30.207,25.071,31.642,24.512,32.326,24.062z"/>
	<path fill="#A0795A" stroke="#A0795A" stroke-width="0.7087" stroke-miterlimit="10" d="M74.291,31.164
		c-3.406,0.744-6.404,0.857-8.992,0.342c-2.589-0.517-4.637-1.492-6.146-2.928c-1.509-1.435-2.382-3.08-2.616-4.938
		c-0.234-1.858-0.039-3.709,0.584-5.553c0.624-1.845,1.968-3.599,4.033-5.261c2.065-1.663,4.151-2.764,6.257-3.3
		s4.342-0.795,6.709-0.774s4.668,0.238,6.9,0.654c2.233,0.415,5.19,1.006,8.872,1.77c3.682,0.765,6.475,1.17,8.379,1.218
		c1.904,0.047,3.547-0.145,4.929-0.573c1.381-0.43,2.565-1.164,3.551-2.203c0.986-1.04,1.298-2.23,0.936-3.571
		s-1.455-2.33-3.279-2.967c-1.824-0.638-3.511-0.855-5.06-0.654s-2.669,0.617-3.359,1.247c-0.691,0.631-0.986,1.365-0.886,2.203
		s0.818,1.512,2.153,2.022c1.334,0.509,3.201,0.294,5.603-0.645c-2.36,1.354-4.353,1.768-5.975,1.237
		c-1.623-0.529-2.552-1.317-2.787-2.363c-0.234-1.047,0.135-1.948,1.106-2.706c0.973-0.758,2.354-1.268,4.145-1.529
		c1.791-0.261,3.638-0.04,5.543,0.664c1.904,0.704,3.04,1.838,3.409,3.4c0.369,1.562,0.044,2.859-0.976,3.893
		c-1.02,1.032-2.199,1.82-3.54,2.363c-1.342,0.544-3.196,0.828-5.562,0.855c-2.368,0.026-4.493-0.081-6.378-0.322
		c-1.884-0.241-4.601-0.802-8.147-1.68c-3.548-0.879-6.592-1.357-9.134-1.438c-2.541-0.08-4.865,0.098-6.971,0.533
		s-4.147,1.476-6.125,3.118c-1.979,1.644-3.276,3.343-3.894,5.1c-0.616,1.758-0.765,3.504-0.442,5.24
		c0.322,1.737,1.17,3.227,2.545,4.467s3.279,2.105,5.714,2.596c2.434,0.488,5.308,0.432,8.62-0.172s5.975-2.045,7.986-4.324
		c-1.649-0.483-2.96-0.996-3.933-1.539c-0.973-0.544-1.667-1.372-2.082-2.485c-0.818,1.247-1.728,2.163-2.727,2.746
		s-2.068,0.898-3.208,0.946c-1.141,0.047-2.217-0.078-3.229-0.373s-1.867-0.784-2.564-1.469c-0.697-0.684-0.939-1.707-0.725-3.067
		c0.215-1.361,1.113-2.556,2.696-3.581c1.582-1.026,3.315-1.656,5.2-1.891c1.884-0.235,3.537-0.241,4.959-0.021
		c1.421,0.222,2.756,0.694,4.003,1.418c1.248,0.724,2.149,1.61,2.706,2.655c0.557,1.047,0.835,2.174,0.835,3.381
		c-0.188,1.166-0.55,2.132-1.086,2.896c1.797,0.16,3.5,0.087,5.109-0.221c1.609-0.31,3.024-1.054,4.245-2.234
		c1.22-1.18,2.213-2.971,2.978-5.371c-0.456,2.588-1.342,4.54-2.656,5.854s-2.803,2.129-4.466,2.444
		c-1.663,0.314-3.527,0.332-5.593,0.051C80.42,28.807,77.698,30.42,74.291,31.164z M78.033,24.062
		c0.684,0.449,2.119,1.009,4.306,1.68c0.482-0.872,0.838-1.838,1.065-2.896c0-1.678-0.409-2.965-1.227-3.863
		c-0.818-0.898-1.616-1.508-2.395-1.831c-0.777-0.322-1.895-0.604-3.35-0.845c-1.455-0.241-3.107-0.249-4.959-0.02
		c-1.851,0.228-3.434,0.882-4.747,1.961c-1.314,1.08-2.029,2.09-2.143,3.028c-0.114,0.938,0.073,1.713,0.562,2.323
		c0.49,0.61,1.157,1.06,2.002,1.348c0.845,0.289,1.811,0.393,2.897,0.312c1.086-0.08,2.075-0.376,2.967-0.885
		c0.892-0.511,1.895-1.576,3.008-3.199C76.679,22.65,77.35,23.613,78.033,24.062z"/>
</g>
</svg>
