<?xml version="1.0" encoding="utf-8"?>
<!-- Generator: Adobe Illustrator 16.0.0, SVG Export Plug-In . SVG Version: 6.00 Build 0)  -->
<!DOCTYPE svg PUBLIC "-//W3C//DTD SVG 1.1//EN" "http://www.w3.org/Graphics/SVG/1.1/DTD/svg11.dtd">
<svg version="1.1" id="Layer_1" xmlns="http://www.w3.org/2000/svg" xmlns:xlink="http://www.w3.org/1999/xlink" x="0px" y="0px"
	 width="109.75px" height="33.5px" viewBox="0 0 109.75 33.5" enable-background="new 0 0 109.75 33.5" xml:space="preserve">
<g>
	<path fill="#A0795A" stroke="#A0795A" stroke-width="0.7087" stroke-miterlimit="10" d="M7.501,26.355
		c2.36-1.354,4.352-1.768,5.975-1.236c1.623,0.529,2.551,1.316,2.786,2.363c0.234,1.047-0.134,1.947-1.106,2.705
		c-0.973,0.758-2.354,1.269-4.146,1.529c-1.79,0.262-3.638,0.04-5.542-0.664c-1.905-0.703-3.042-1.838-3.41-3.4
		c-0.369-1.562-0.043-2.858,0.976-3.893c1.019-1.031,2.2-1.82,3.541-2.363c1.341-0.543,3.195-0.828,5.562-0.854
		c2.367-0.026,4.493,0.081,6.377,0.322c1.884,0.241,4.6,0.802,8.148,1.68c3.547,0.879,6.591,1.356,9.133,1.438
		c2.542,0.08,4.865-0.099,6.971-0.533c2.105-0.436,4.147-1.477,6.125-3.118c1.979-1.644,3.276-3.343,3.893-5.1
		c0.617-1.757,0.764-3.503,0.442-5.24c-0.322-1.737-1.17-3.226-2.545-4.466c-1.375-1.24-3.279-2.105-5.713-2.595
		c-2.433-0.49-5.307-0.433-8.619,0.17c-3.313,0.604-5.975,2.045-7.987,4.325c1.65,0.483,2.96,0.996,3.933,1.539
		c0.972,0.543,1.666,1.372,2.082,2.485c0.818-1.248,1.727-2.163,2.726-2.746s2.068-0.898,3.208-0.946
		c1.14-0.047,2.216,0.078,3.229,0.372c1.013,0.295,1.868,0.785,2.565,1.469c0.697,0.684,0.938,1.707,0.724,3.068
		s-1.113,2.555-2.696,3.581c-1.583,1.026-3.316,1.655-5.2,1.892c-1.884,0.234-3.538,0.24-4.959,0.021
		c-1.422-0.222-2.756-0.694-4.003-1.418c-1.247-0.724-2.149-1.609-2.706-2.655s-0.835-2.173-0.835-3.38
		c0.188-1.167,0.55-2.132,1.086-2.897c-1.797-0.161-3.5-0.087-5.11,0.221c-1.609,0.309-3.025,1.053-4.245,2.233
		c-1.22,1.18-2.213,2.971-2.977,5.371c0.456-2.588,1.341-4.54,2.655-5.854s2.803-2.129,4.466-2.444
		c1.663-0.315,3.527-0.332,5.592-0.05c2.039-2.481,4.761-4.094,8.168-4.838c3.406-0.744,6.404-0.858,8.993-0.342
		c2.588,0.517,4.637,1.492,6.146,2.927c1.509,1.435,2.38,3.081,2.615,4.938c0.234,1.858,0.04,3.708-0.583,5.553
		c-0.623,1.845-1.968,3.598-4.034,5.26c-2.065,1.663-4.151,2.764-6.256,3.3c-2.106,0.536-4.342,0.795-6.709,0.773
		c-2.367-0.021-4.667-0.237-6.9-0.653c-2.233-0.415-5.19-1.006-8.872-1.771c-3.682-0.765-6.475-1.17-8.379-1.218
		c-1.905-0.047-3.548,0.146-4.929,0.573c-1.381,0.43-2.565,1.164-3.55,2.203c-0.986,1.04-1.298,2.23-0.936,3.57
		c0.362,1.342,1.455,2.33,3.279,2.967c1.824,0.639,3.511,0.855,5.06,0.654c1.549-0.201,2.669-0.617,3.36-1.246
		c0.69-0.631,0.986-1.365,0.885-2.203s-0.818-1.512-2.153-2.022C11.769,25.203,9.901,25.418,7.501,26.355z M28.021,7.868
		c-0.483,0.872-0.838,1.837-1.066,2.897c0,1.677,0.409,2.964,1.227,3.862c0.818,0.899,1.616,1.509,2.394,1.831
		c0.778,0.322,1.894,0.604,3.35,0.845c1.455,0.241,3.108,0.249,4.959,0.021c1.851-0.228,3.433-0.882,4.748-1.961
		c1.315-1.079,2.029-2.089,2.143-3.028c0.114-0.938-0.074-1.713-0.563-2.323c-0.49-0.61-1.157-1.06-2.002-1.348
		c-0.845-0.288-1.811-0.392-2.897-0.312s-2.075,0.375-2.967,0.885c-0.892,0.51-1.895,1.576-3.007,3.199
		c-0.657-1.475-1.328-2.437-2.012-2.887C31.642,9.099,30.207,8.539,28.021,7.868z"/>
	<path fill="#A0795A" stroke="#A0795A" stroke-width="0.7087" stroke-miterlimit="10" d="M82.459,7.285
		c2.064-0.282,3.93-0.265,5.593,0.05s3.151,1.13,4.466,2.444c1.315,1.314,2.2,3.266,2.656,5.854c-0.765-2.4-1.758-4.191-2.979-5.371
		c-1.221-1.18-2.635-1.924-4.244-2.233c-1.609-0.308-3.312-0.382-5.109-0.221c0.536,0.765,0.897,1.73,1.086,2.897
		c0,1.207-0.277,2.333-0.835,3.38c-0.557,1.046-1.458,1.931-2.706,2.655c-1.246,0.725-2.582,1.197-4.003,1.418
		c-1.422,0.221-3.075,0.215-4.959-0.021c-1.885-0.234-3.618-0.865-5.2-1.891c-1.582-1.026-2.48-2.22-2.695-3.581
		s0.027-2.384,0.725-3.068c0.698-0.684,1.553-1.173,2.564-1.469c1.013-0.294,2.089-0.419,3.229-0.372
		c1.141,0.047,2.209,0.362,3.208,0.946c0.999,0.583,1.908,1.499,2.728,2.746c0.414-1.113,1.108-1.941,2.082-2.485
		c0.973-0.543,2.283-1.056,3.933-1.539c-2.013-2.28-4.674-3.722-7.985-4.325c-3.312-0.603-6.188-0.66-8.621-0.171
		c-2.435,0.49-4.339,1.355-5.714,2.595c-1.375,1.241-2.223,2.729-2.545,4.466c-0.321,1.737-0.174,3.483,0.442,5.24
		c0.617,1.757,1.915,3.457,3.894,5.1c1.978,1.644,4.021,2.683,6.125,3.118c2.105,0.435,4.431,0.613,6.972,0.533
		c2.541-0.082,5.586-0.561,9.134-1.438c3.547-0.878,6.264-1.438,8.147-1.681c1.885-0.24,4.01-0.348,6.377-0.321
		c2.366,0.026,4.221,0.312,5.562,0.854c1.341,0.543,2.521,1.332,3.54,2.363c1.021,1.033,1.345,2.331,0.976,3.893
		c-0.369,1.562-1.505,2.697-3.408,3.4c-1.906,0.704-3.752,0.926-5.543,0.664s-3.173-0.771-4.146-1.529
		c-0.972-0.758-1.341-1.658-1.106-2.705c0.235-1.047,1.164-1.834,2.787-2.363c1.622-0.53,3.614-0.117,5.975,1.236
		c-2.4-0.938-4.269-1.152-5.603-0.645c-1.335,0.512-2.053,1.186-2.153,2.021c-0.1,0.838,0.194,1.572,0.887,2.203
		c0.689,0.631,1.811,1.047,3.359,1.248c1.547,0.2,3.234-0.018,5.06-0.654c1.823-0.637,2.917-1.627,3.278-2.967
		c0.362-1.342,0.052-2.531-0.936-3.571c-0.984-1.039-2.17-1.773-3.551-2.203c-1.383-0.429-3.024-0.62-4.93-0.573
		c-1.903,0.048-4.696,0.453-8.379,1.219c-3.682,0.764-6.639,1.354-8.871,1.77s-4.533,0.634-6.9,0.654
		c-2.367,0.02-4.604-0.238-6.709-0.774s-4.191-1.638-6.258-3.3c-2.064-1.662-3.408-3.416-4.032-5.26
		c-0.623-1.844-0.817-3.695-0.584-5.553c0.233-1.857,1.106-3.503,2.616-4.938c1.509-1.435,3.557-2.411,6.146-2.927
		s5.587-0.402,8.992,0.342C77.698,3.191,80.42,4.804,82.459,7.285z M76.021,12.435c-1.113-1.623-2.117-2.688-3.008-3.199
		c-0.893-0.509-1.882-0.805-2.968-0.885c-1.087-0.081-2.053,0.023-2.897,0.312c-0.844,0.289-1.512,0.738-2.002,1.348
		c-0.488,0.61-0.676,1.385-0.562,2.323c0.113,0.939,0.828,1.948,2.144,3.028c1.312,1.08,2.896,1.733,4.746,1.961
		c1.853,0.229,3.504,0.221,4.959-0.021c1.455-0.241,2.572-0.523,3.351-0.845c0.778-0.322,1.575-0.932,2.396-1.831
		c0.816-0.898,1.227-2.186,1.227-3.862c-0.229-1.06-0.583-2.025-1.065-2.897c-2.187,0.671-3.622,1.23-4.306,1.68
		C77.35,9.998,76.68,10.959,76.021,12.435z"/>
</g>
</svg>
